<?xml version="1.0" encoding="UTF-8"?>
<svg width="167px" height="31px" viewBox="0 0 167 31" version="1.1" xmlns="http://www.w3.org/2000/svg" xmlns:xlink="http://www.w3.org/1999/xlink">
    <!-- Generator: Sketch 54.1 (76490) - https://sketchapp.com -->
    <title>accuranker-logo</title>
    <desc>Created with Sketch.</desc>
    <defs>
        <linearGradient x1="0%" y1="100%" x2="100%" y2="0%" id="linearGradient-1">
            <stop stop-color="#FFD83C" offset="0%"></stop>
            <stop stop-color="#FA8B30" offset="100%"></stop>
        </linearGradient>
    </defs>
    <g id="Page-1" stroke="none" stroke-width="1" fill="none" fill-rule="evenodd">
        <g id="Artboard" transform="translate(-9.000000, -14.000000)">
            <g id="accuranker-logo" transform="translate(9.000000, 14.000000)">
                <rect id="Rectangle" fill="#FFFFFF" x="0" y="1" width="29" height="29" rx="6"></rect>
                <path d="M1.783,7.04 C1.77708091,7.13655401 1.77407954,7.23326477 1.774,7.33 L1.774,23.89 C1.7745522,26.5024686 3.89253132,28.6200001 6.505,28.62 L23.065,28.62 C24.639062,28.6207455 26.1102292,27.8379226 26.989,26.532 C23.694,24.242 23.473,15.913 21.451,11.75 C20.744,10.294 19.871,9.348 18.068,9.348 C15.473,9.348 13.781,15.266 10.268,15.266 C6.467,15.266 6.56,10.938 1.83,7.08 C1.81412833,7.06690944 1.79845979,7.05357452 1.783,7.04 Z M6.56696919e-16,6.738 C0.00110385486,3.47279762 2.64779762,0.826103855 5.913,0.825 L23.657,0.825 C26.9222024,0.826103855 29.5688961,3.47279762 29.57,6.738 L29.57,24.482 C29.5688961,27.7472024 26.9222024,30.3938961 23.657,30.395 L5.913,30.395 C2.64779762,30.3938961 0.00110385486,27.7472024 0,24.482 L6.56696919e-16,6.738 Z" id="Shape" fill="url(#linearGradient-1)" fill-rule="nonzero" transform="translate(14.785000, 15.610000) scale(-1, 1) rotate(-180.000000) translate(-14.785000, -15.610000) "></path>
                <path d="M53.575,19.032 L46.554,19.032 L44.142,25.132 L42.806,25.132 L49.756,7.779 L50.526,7.779 L57.334,25.131 L55.974,25.131 L53.574,19.032 L53.575,19.032 Z M46.991,17.945 L53.173,17.945 L50.821,11.715 C50.5605173,11.045887 50.3237035,10.3677993 50.111,9.682 C49.9184211,10.380501 49.6857011,11.067309 49.414,11.739 L46.991,17.944 L46.991,17.945 Z M64.313,25.368 C62.476,25.368 61.038,24.788 59.998,23.63 C58.958,22.472 58.438,20.857 58.438,18.784 C58.438,16.656 58.978,15 60.058,13.814 C61.137,12.628 62.614,12.034 64.49,12.034 C65.6,12.034 66.665,12.227 67.681,12.614 L67.361,13.654 C66.251,13.284 65.285,13.098 64.466,13.098 C62.89,13.098 61.696,13.585 60.884,14.558 C60.072,15.531 59.667,16.932 59.667,18.76 C59.667,20.494 60.072,21.851 60.884,22.832 C61.696,23.813 62.831,24.304 64.288,24.304 C65.455,24.304 66.538,24.095 67.539,23.677 L67.539,24.765 C66.719,25.167 65.644,25.368 64.312,25.368 L64.313,25.368 Z M75.511,25.368 C73.675,25.368 72.237,24.788 71.197,23.63 C70.157,22.472 69.637,20.857 69.637,18.784 C69.637,16.656 70.177,15 71.256,13.814 C72.336,12.628 73.814,12.034 75.688,12.034 C76.8,12.034 77.864,12.227 78.881,12.614 L78.561,13.654 C77.451,13.284 76.485,13.098 75.665,13.098 C74.089,13.098 72.895,13.585 72.085,14.558 C71.272,15.531 70.867,16.932 70.867,18.76 C70.867,20.494 71.272,21.851 72.084,22.832 C72.895,23.813 74.03,24.304 75.488,24.304 C76.654,24.304 77.738,24.095 78.738,23.677 L78.738,24.765 C77.918,25.167 76.843,25.368 75.512,25.368 L75.511,25.368 Z M82.596,12.283 L82.596,20.604 C82.596,21.897 82.868,22.837 83.412,23.424 C83.956,24.011 84.799,24.304 85.942,24.304 C87.47,24.304 88.595,23.918 89.316,23.146 C90.038,22.373 90.398,21.116 90.398,19.376 L90.398,12.283 L91.556,12.283 L91.556,25.13 L90.563,25.13 L90.35,23.357 L90.28,23.357 C89.445,24.697 87.96,25.367 85.824,25.367 C82.9,25.367 81.438,23.803 81.438,20.674 L81.438,12.282 L82.597,12.282 L82.596,12.283 Z M97.058,17.603 L97.058,25.131 L95.852,25.131 L95.852,7.851 L99.965,7.851 C102.109,7.851 103.693,8.247 104.717,9.039 C105.742,9.831 106.254,11.023 106.254,12.614 C106.254,13.773 105.949,14.75 105.338,15.546 C104.727,16.342 103.799,16.913 102.554,17.26 L107.247,25.133 L105.805,25.133 L101.348,17.603 L97.058,17.603 Z M97.058,16.562 L100.355,16.562 C101.813,16.562 102.945,16.237 103.748,15.587 C104.552,14.937 104.954,13.977 104.954,12.709 C104.954,11.393 104.56,10.435 103.772,9.836 C102.984,9.237 101.699,8.938 99.918,8.938 L97.058,8.938 L97.058,16.562 Z M117.441,25.132 L117.145,23.099 L117.051,23.099 C116.404,23.926 115.741,24.512 115.059,24.854 C114.377,25.197 113.572,25.369 112.642,25.369 C111.381,25.369 110.4,25.046 109.698,24.399 C108.998,23.753 108.646,22.859 108.646,21.716 C108.646,20.464 109.168,19.49 110.212,18.796 C111.256,18.103 112.767,17.736 114.745,17.697 L117.192,17.627 L117.192,16.775 C117.192,15.554 116.944,14.632 116.448,14.009 C115.951,13.387 115.151,13.075 114.048,13.075 C112.858,13.075 111.625,13.406 110.348,14.068 L109.911,13.052 C111.321,12.39 112.716,12.059 114.095,12.059 C115.505,12.059 116.56,12.425 117.257,13.158 C117.955,13.891 118.303,15.033 118.303,16.586 L118.303,25.131 L117.441,25.131 L117.441,25.132 Z M112.713,24.305 C114.083,24.305 115.165,23.913 115.957,23.129 C116.749,22.344 117.145,21.255 117.145,19.86 L117.145,18.596 L114.899,18.69 C113.095,18.777 111.809,19.058 111.039,19.535 C110.272,20.012 109.888,20.755 109.888,21.763 C109.888,22.567 110.134,23.192 110.626,23.637 C111.119,24.082 111.814,24.305 112.713,24.305 L112.713,24.305 Z M131.122,16.798 C131.122,15.506 130.85,14.566 130.306,13.978 C129.762,13.392 128.919,13.098 127.776,13.098 C126.24,13.098 125.116,13.486 124.402,14.262 C123.689,15.039 123.332,16.297 123.332,18.039 L123.332,25.131 L122.162,25.131 L122.162,12.283 L123.155,12.283 L123.38,14.045 L123.45,14.045 C124.286,12.705 125.771,12.035 127.907,12.035 C130.822,12.035 132.28,13.599 132.28,16.728 L132.059,25.235 L131.089,25.235 L131.122,16.798 L131.122,16.798 Z M137.285,19.494 L143.845,12.284 L145.263,12.284 L140.204,17.768 L145.701,25.132 L144.294,25.132 L139.412,18.642 L137.308,20.558 L137.308,25.131 L136.138,25.131 L136.138,6.74 L137.308,6.74 L137.308,15.96 L137.225,19.494 L137.285,19.494 L137.285,19.494 Z M152.255,25.368 C150.386,25.368 148.93,24.793 147.887,23.642 C146.842,22.492 146.32,20.88 146.32,18.808 C146.32,16.758 146.824,15.118 147.833,13.884 C148.842,12.651 150.202,12.034 151.911,12.034 C153.424,12.034 154.618,12.562 155.493,13.618 C156.368,14.674 156.805,16.108 156.805,17.921 L156.805,18.867 L147.55,18.867 C147.565,20.632 147.977,21.979 148.785,22.909 C149.593,23.839 150.749,24.304 152.255,24.304 C152.987,24.304 153.631,24.253 154.187,24.15 C154.742,24.048 155.445,23.827 156.297,23.488 L156.297,24.552 C155.572,24.867 154.901,25.082 154.287,25.196 C153.672,25.311 152.994,25.368 152.253,25.368 L152.254,25.368 L152.255,25.368 Z M151.911,13.075 C150.674,13.075 149.681,13.483 148.933,14.298 C148.183,15.114 147.747,16.29 147.62,17.827 L155.564,17.827 C155.564,16.337 155.241,15.173 154.594,14.334 C153.948,13.494 153.054,13.074 151.911,13.074 L151.911,13.075 Z M165.108,12.035 C165.652,12.035 166.235,12.089 166.858,12.2 L166.633,13.323 C166.087688,13.1878433 165.52781,13.1203355 164.966,13.122 C163.871,13.122 162.972,13.587 162.271,14.516 C161.571,15.446 161.219,16.621 161.219,18.039 L161.219,25.131 L160.049,25.131 L160.049,12.283 L161.042,12.283 L161.16,14.6 L161.243,14.6 C161.771,13.654 162.333,12.99 162.933,12.608 C163.532,12.226 164.257,12.035 165.108,12.035 L165.108,12.035 Z" id="Shape" fill="#1F2630" fill-rule="nonzero"></path>
            </g>
        </g>
    </g>
</svg>