<svg xmlns="http://www.w3.org/2000/svg" width="518" height="395" viewBox="0 0 518 395">
    <g fill="none" fill-rule="evenodd">
        <path fill="#FAFAFA" d="M301.268 378.189c79.05 0 200.186-74.569 200.186-153.594 0-50.761 24.037-105.89-53.05-138.084-42.921-17.925-187.927-28.017-216.2-28.017-32.968 0-100.098-7.451-140.129 35.522C36.122 154.08 11 275.087 11 321.154c0 79.025 211.219 57.035 290.268 57.035z"/>
        <path fill="#99A2A9" d="M440 358h14v-98h-14zM490 262h8v-27h-8z"/>
        <path fill="#5E7185" d="M511.5 92.438l-3.217-.387c-4.017-.477-7.69 2.459-8.166 6.532L485.05 228.295c-.47 4.068 2.433 7.794 6.45 8.27l3.217.383c4.017.482 7.69-2.459 8.166-6.527l15.067-129.712c.47-4.073-2.433-7.794-6.45-8.27"/>
        <path fill="#6B7F94" d="M506.106 97.013c-1.205-.146-2.329.986-2.5 2.524l-14.584 130.39c-.171 1.533.672 2.91 1.872 3.06 1.205.146 2.329-.986 2.5-2.52l14.584-130.394c.171-1.533-.672-2.91-1.872-3.06"/>
        <path fill="#303030" d="M421 369.998a8.002 8.002 0 0 1-8.002 8.002 7.998 7.998 0 0 1-7.998-8.002 7.997 7.997 0 0 1 7.998-7.998c4.42 0 8.002 3.583 8.002 7.998M493 369.998a8 8 0 0 1-8 8.002 8 8 0 0 1-8-8.002 7.998 7.998 0 0 1 8-7.998c4.421 0 8 3.583 8 7.998"/>
        <path fill="#99A2A9" d="M495 365h-96c0-3.316 3.03-6 6.763-6h82.474c3.732 0 6.763 2.684 6.763 6"/>
        <path fill="#A2ADB5" d="M448.77 358h3.46v-89h-3.46z"/>
        <path fill="#99A2A9" d="M416.31 249h4.38v-29h-4.38zM471.31 249h4.38v-29h-4.38z"/>
        <path fill="#5E7185" d="M477.754 227h-67.508c-3.433 0-6.246-2.774-6.246-6.165v-2.665c0-3.396 2.813-6.17 6.246-6.17h67.508c3.438 0 6.246 2.774 6.246 6.17v2.665c0 3.391-2.808 6.165-6.246 6.165M491.693 274h-87.386c-5.142 0-9.307-4.169-9.307-9.316v-10.368c0-5.142 4.165-9.316 9.307-9.316h87.386c5.137 0 9.307 4.174 9.307 9.316v10.374c0 5.141-4.17 9.31-9.307 9.31"/>
        <path fill="#99A2A9" d="M42 257h14v-11H42zM57 366h14v-98H57z"/>
        <path fill="#303030" d="M92 377a8 8 0 0 0 8.002 8 7.998 7.998 0 0 0 7.998-8c0-4.421-3.583-8-7.998-8A8 8 0 0 0 92 377M18 377a8 8 0 0 0 8.002 8A7.998 7.998 0 0 0 34 377c0-4.421-3.583-8-7.998-8A8 8 0 0 0 18 377"/>
        <path fill="#99A2A9" d="M16 372h96c0-3.313-3.03-6-6.768-6H22.763c-3.737 0-6.763 2.687-6.763 6"/>
        <path fill="#A2ADB5" d="M58.767 366h3.465v-89h-3.465z"/>
        <path fill="#5E7185" d="M18.698 276h90.604c4.255 0 7.698-3.3 7.698-7.377v-4.246c0-4.073-3.443-7.377-7.698-7.377H18.698c-4.25 0-7.698 3.304-7.698 7.377v4.246C11 272.7 14.448 276 18.698 276M70.35 249h-44.7C15.39 249 7 240.569 7 230.261v-62.066C7 145.54 25.45 127 48 127s41 18.539 41 41.195v62.066C89 240.57 80.609 249 70.35 249"/>
        <path fill="#6B7F94" d="M71.445 241h-34.89C28.549 241 22 234.409 22 226.352v-61.144C22 147.493 36.4 133 53.998 133h.004C71.6 133 86 147.493 86 165.208v61.144C86 234.409 79.45 241 71.445 241"/>
        <path fill="#FFA47C" d="M241.241 152.966l-.005-.006c-.507-.953-.17-2.154.747-2.672l7.168-4.05c.922-.517 2.096-.165 2.608.794l.005.005c.507.954.17 2.155-.747 2.673l-7.168 4.049c-.922.523-2.1.165-2.608-.793"/>
        <path fill="#FFA47C" d="M239.236 150.97v-.011c-.507-.948-.17-2.15.747-2.667l7.163-4.05c.928-.524 2.102-.166 2.614.787l.005.011c.507.948.165 2.15-.752 2.667l-7.163 4.05c-.928.524-2.102.171-2.614-.787"/>
        <path fill="#FFA47C" d="M238.236 147.97v-.01c-.507-.948-.17-2.15.747-2.667l7.162-4.05c.928-.524 2.102-.171 2.614.787l.005.011c.507.948.17 2.15-.752 2.667l-7.163 4.05c-.928.524-2.1.166-2.613-.787"/>
        <path fill="#FFA47C" d="M237.241 145.97l-.005-.01c-.507-.948-.17-2.15.747-2.667l7.168-4.05c.928-.524 2.1-.171 2.608.787l.005.011c.507.948.17 2.15-.747 2.667l-7.168 4.05c-.922.524-2.096.166-2.608-.787"/>
        <path fill="#FFA47C" d="M261.844 134s-12.739 1.043-15.051 1.947c-2.313.904-9.793 7.025-9.793 7.025s4.168 1.41 4.967 3.472c.804 2.057 2.383 7.556 2.383 7.556s8.22-1.987 11.542-4.054c3.323-2.066 6.108-4.858 6.108-4.858L261.844 134"/>
        <path fill="#E0F2FF" d="M257.102 149l8.898-5.068L260.744 131 250 133.961 257.102 149"/>
        <path fill="#191919" d="M351.354 75.832c7.253 5.156 5.144 12.697-.384 19.494-5.534 6.801-41 35.689-43.829 35.674-2.828-.01-12.23-8.744-11.037-12.642 1.187-3.899 26.869-34.176 32.387-38.977 5.519-4.8 14.364-9.591 22.863-3.549"/>
        <path fill="#FFBD95" d="M361.406 30s7.348 24.811 9.108 25.66c5.49 2.653 13.141 8.107 17.87 13.919 5.732 7.048 3.793 41.61 4.066 54.118.274 12.507 10.401 29.465 15.095 40.632 4.688 11.171-28.365 34.328-29.707 34.661-1.342.333-15.85-7.724-19.032-10.968-3.187-3.238-8.403-33.558-10.302-41.148-1.894-7.595-10.302-33.767-11.077-35.421-5.186-11.057-4.475-20.972-4.64-23.54-.168-2.568-1.327-6.646-.481-8.524 1.675-3.74 14.319-11.27 14.15-12.89-.165-1.62-3.74-23.857-3.74-23.857L361.407 30"/>
        <path fill="#CEE0FF" d="M371.447 55l-18.595 18.688-5.254-7.817s-12.942 9.326-14.026 12.928c-1.084 3.602-.296 10.627-.286 13.312.01 2.68 2.523 14.428 5.993 24.287 2.036 5.77 3.815 13.621 7.186 23.47 2.888 8.435 7.245 30.132 7.245 30.132s8.225-1.714 20.694-5.515c14.435-4.4 30.783-8.5 31.31-9.212 2.243-3.039-9.452-26.828-9.566-29.483-.113-2.656-2.69-48.824-3.814-54.638-1.129-5.82-5.515-8.664-9.768-11.23C378.11 57.237 371.447 55 371.447 55"/>
        <path fill="#B8D1FF" d="M379.615 58s-6.714 5.668-9.134 13.278c-6.524 20.504 15.916 42.051 4.069 48.613-18.931 10.498-14.525 15.864-14.438 20.038C360.308 149.122 359 161 359 161l45.489-5.465c6.084-.308-8.144-25.553-8.529-32.254-1.625-28.605-3.172-49.507-4.113-54.153C390.568 62.82 379.615 58 379.615 58"/>
        <path fill="#FFA47C" d="M344 51.603L364.195 38 368 51.094 362.192 57 344 51.603"/>
        <path fill="#FFBD95" d="M335.04 8.895c5.108-5.969 21.46-12.866 31.111-2.73 9.653 10.141 7.348 21.585 3.682 28.94-2.858 5.74-5.901 9.089-12.276 12.937-1.302.783-13.498 4.451-16.092 3.902-1.77-.369-4.589-12.626-5.078-12.516-.488.11-1.96-.464-2.155-1.462-.284-1.453.22-10.57-.254-11.469-.474-.898-4.793-10.755 1.063-17.602"/>
        <path fill="#8D3B26" d="M332 14.72s8.895-6.45 22.097 2.81c2.842 1.995-.783 12.349-.035 13.14.803.852 8.55-8.284 8.348-7.131-2.053 11.73 2.47 17.515 3.53 17.46 3.207-.168 11.033-17.307 4.587-29.645C364.087-.98 349.891-.594 346.613.5 343.34 1.589 333.285 3.534 332 14.72"/>
        <path fill="#FFBD95" d="M357.33 24.72c-.584 3.841-.52 8.899 1.25 9.25 1.764.356 3.667-2.478 4.251-6.314.58-3.847-.38-7.246-2.145-7.597-1.765-.351-2.777.82-3.357 4.66"/>
        <path fill="#191919" d="M371 379.88h15v-2.76h-15z"/>
        <path fill="#0F0D0D" d="M384.545 357.177c1.935 2.748 3.244 8.066 3.434 10.52.23 2.95-1.504 9.177-3.419 9.177-5.584 0-12.263.228-18.022 1.014-5.763.79-7.918 4.147-22.65 4.112-4.3-.01-12.113-.284-11.883-2.054.23-1.774 14.132-4.989 18.616-9.182 11.348-10.611 18.907-13.172 18.907-13.172s14.617-.983 15.017-.415"/>
        <path fill="#191919" d="M396.105 171.65s.946 5.935 1.83 14.438c.877 8.508-7.248 35.728-10.122 57.137-2.878 21.41-4.658 25.738-3.937 30.795.715 5.053 6.997 25.54 6.198 39.165-.805 13.625-3.506 49.259-3.506 49.259s-3.982 1.824-10.926 2.503c-6.943.675-11.763-5.37-11.763-5.37s-5.585-79.607-6.468-88.011c-.569-5.434-4.967-42.937-6.31-73.514-.432-9.837.67-32.585.67-36.65-.004-2.832 44.334 10.248 44.334 10.248M416.498 383L431 380.607l-.498-2.607L416 380.393l.498 2.607"/>
        <path fill="#191919" d="M426.381 359.048c2.413 2.419 4.67 7.523 5.299 9.947.76 2.92.16 9.457-1.738 9.792-5.54.97-12.122 2.36-17.698 4.154-5.575 1.79-10.203 8.153-21.727 8.058-4.33-.035-12.797.075-12.51-1.72.71-4.428 13.472-5.733 17.164-10.717 9.348-12.601 16.383-16.485 16.383-16.485s14.329-3.524 14.827-3.03"/>
        <path fill="#303030" d="M404.888 157s6.303 12.15 7.38 22.724c.874 8.562.249 24.547-.164 46.293-.412 21.75 1.615 41.69 2.926 46.661 1.306 4.973 10.513 25.62 11.288 39.339.77 13.723 2.682 48.594 2.682 48.594s-5.503 3.42-12.406 4.912c-6.908 1.497-11.378-1.009-11.378-1.009s-17.387-78.801-21.445-86.284c-6.48-11.936-11.81-51.3-18.405-77.793C362.704 189.749 353 164.598 353 164.598L404.888 157"/>
        <path fill="#B8D1FF" d="M351 68.399l.348 5.601L362 64l-11 4.399"/>
        <path fill="#B8D1FF" d="M352 74l-3.022-6L347 70.866 352 74"/>
        <path fill="#303030" d="M355 70.254L347 70l1.128 7.706 4.305.294L355 70.254M352.541 78.258s-2.083 18.555-.684 32.359c1.404 13.808 5.143 57.135 5.143 57.135L351.708 178l-5.446-9.767s-.303-42.67-.257-57.86C346.05 95.18 348.555 78 348.555 78l3.986.258"/>
        <path fill="#303030" d="M370.75 55s-12.135 19.197-16.605 33.162c-4.47 13.97-7.145 27.37-7.145 27.37L356.154 198s17.896-.139 33.58-2.498c15.683-2.358 26.266-6.694 26.266-6.694s-1.216-9.089-4.346-20.813c-4.02-15.045-10.276-34.213-11.337-41.745-1.89-13.41-3.563-53.182-9.343-60.734C385.199 57.968 370.751 55 370.751 55"/>
        <path fill="#191919" d="M345.024 68s-1.833 18.8-1.054 28.61c.778 9.803 4.09 22.068 4.09 22.068L357 199l-11.966-4.714s-12.197-89.76-12.72-100.316c-.517-10.561-.542-14.27 1.065-16.186C334.985 75.863 345.024 68 345.024 68"/>
        <path fill="#191919" d="M384.188 64.056c8.353.964 6.278 44.295 2.587 60.987C383.079 141.73 356.229 199 356.229 199s-10.84-77.214-9.024-81.046c1.448-3.053 6.09-13.61 9.024-21.318 6.11-16.038 17.696-33.764 27.959-32.58"/>
        <path fill="#E0F2FF" d="M349 67.013L345.95 74 344 68.064 346.712 63 349 67.013"/>
        <path fill="#303030" d="M381.443 65.068c8.675.818 10.538 8.498 9.135 17.272-1.409 8.774-17.262 54.828-19.67 56.256-2.412 1.434-16.976-1.108-17.855-5.123-.88-4.02 9.455-45.994 11.822-53.015 2.363-7.015 6.408-16.346 16.568-15.39"/>
        <path fill="#FFA47C" d="M255 149.786s-2.788 1.762-6.767 3.06l-1.41.737-1.387.196-.831.469-1.416.025-1.207.572c-1.17.48-1.436-.366-1.811-.257-1.156.34-1.502.417-1.727.412-1.106-.016-5.125-2.895-5.61-3.544-.486-.65-4.044-3.637-3.824-4.07.22-.438 1.872-1.144 3.994.227 2.122 1.37 4.774 2.9 4.409 2.472-.365-.432-1.782-3.317-2.127-4.59-.22-.824.58-1.241 1.271-1.293l2.177 1.525.846-1.71c1.221-.196 2.177 1.37 2.648 1.777.385.335.27-1.654.81-1.68 2.002-.097 3.524 4.694 5.306 3.725.9-.49 5.235-.664 6.656 1.947"/>
        <path fill="#FFBD95" d="M333 186.504s-.372 7.21-4.685 8.583c-4.314 1.373-9.173-1.363-10.432-1.686-5.186-1.313-10.71 2.817-13.942 2.59-3.233-.227-3.461-2.307-2.306-2.626 6.485-1.767 9.921-4.922 12.871-5.331 2.95-.41 13.343-5.034 13.343-5.034l5.151 3.504"/>
        <path fill="#E0F2FF" d="M332.833 192l5.167-8.131L327.167 176 322 184.131 332.833 192M375 56.607L369.357 52 352 69.507 357.052 76 375 56.607"/>
        <path fill="#191919" d="M316.42 115.672c-2.946-9.247-21.954-2.61-30.921 1.523-8.972 4.138-34.499 16.552-34.499 16.552L258.693 150s24.894-6.707 48.72-17.388c2.553-1.145 12.002-7.54 9.007-16.94"/>
        <path fill="#303030" d="M370.34 126.442c8.113 4.99-4.371 25.705-10.307 33.489-5.936 7.783-24.015 31.069-24.015 31.069L322 181.306s13.607-25.526 28.878-47.854c1.564-2.295 11.21-12.09 19.463-7.01"/>
        <path fill="#FFBD95" d="M202 185.78s-.117 6.42 4.043 7.905c4.154 1.485 9.122-.64 10.38-.844 5.196-.844 10.36 3.159 13.56 3.159 3.195 0 3.562-1.83 2.442-2.179-6.264-1.975-9.435-4.983-12.318-5.527-2.877-.548-12.797-5.294-12.797-5.294l-5.31 2.78"/>
        <path fill="#FFBD95" d="M203 188.756s2.143 4.818 4.716 6.278c2.578 1.455 6.1-.219 8.404.69 2.309.91 1.898-.69 1.766-1.128-.137-.438-2.984-1.516-4.202-2.218-1.223-.696-5.24-6.396-10.684-3.622"/>
        <path fill="#B8D1FF" d="M177.637 128.85c7.992-4.851 16.83 12.262 20.72 20.833 3.89 8.57 12.643 34.658 12.643 34.658L201.834 189s-16.428-19.228-28.4-42.29c-1.229-2.366-3.934-12.92 4.203-17.86"/>
        <path fill="#E0F2FF" d="M209.054 177l3.946 8.438L200.76 192l-4.76-8.276L209.054 177"/>
        <path fill="#B8D1FF" d="M166.618 73.007c-8.86.255-11.285 7.805-10.47 16.654.815 8.855 14.205 53.218 16.557 54.803 2.346 1.585 14.966-.48 16.14-4.44 1.168-3.954-4.56-43.428-6.475-50.588-1.915-7.16-5.365-16.734-15.752-16.429"/>
        <path fill="#FFBD95" d="M148.568 30s-6.802 25.063-8.538 25.955c-5.418 2.778-12.934 8.42-17.528 14.355-5.572 7.197-2.903 41.855-2.907 54.414-.005 12.559-9.75 29.8-14.19 41.113-4.44 11.312 29.029 33.85 30.373 34.155 1.344.309 15.648-8.09 18.758-11.412 3.106-3.322 7.665-33.87 9.397-41.531 1.731-7.666 9.555-34.12 10.294-35.796 4.937-11.212 4.019-21.148 4.128-23.731.114-2.579 1.18-6.699.298-8.564-1.751-3.72-14.527-11.012-14.393-12.638.134-1.631 3.225-24.03 3.225-24.03L148.568 30"/>
        <path fill="#CEE0FF" d="M139.668 57l19.111 18.185 5.12-7.885s13.227 8.996 14.393 12.56c1.17 3.558.526 10.562.57 13.228.05 2.667-2.232 14.409-5.516 24.287-1.92 5.785-3.548 13.636-6.733 23.504-2.729 8.451-6.648 30.121-6.648 30.121s-8.315-1.522-20.947-5.036c-14.62-4.07-31.162-7.796-31.703-8.49-2.322-2.98 8.94-26.89 8.995-29.531.06-2.647 1.672-48.624 2.68-54.433 1.011-5.809 5.367-8.733 9.59-11.375 4.425-2.77 11.088-5.135 11.088-5.135"/>
        <path fill="#B8D1FF" d="M125.295 64s15.247-.025 17.844 7.58c7.01 20.493 4.683 25.17 16.758 31.521 19.305 10.15 1.903 37.513 1.903 41.715 0 9.254-1.426 18.184-1.426 18.184l-51.802-4.123c-6.139-.174 7.668-25.899 7.909-32.65 1.038-28.822 1.8-49.974 3-54.592 1.156-4.432 5.814-7.635 5.814-7.635"/>
        <path fill="#FFA47C" d="M166 53.198L145.527 40 142 53.208 147.93 59 166 53.198"/>
        <path fill="#FFBD95" d="M175.765 9.537c-5.25-5.888-21.787-12.463-31.244-2.072-9.456 10.392-6.905 21.842-3.07 29.154 2.985 5.702 6.11 9.002 12.582 12.733 1.32.763 13.621 4.183 16.206 3.576 1.77-.411 4.33-12.784 4.826-12.683.49.1 1.955-.507 2.13-1.515.25-1.47-.45-10.617.005-11.53.455-.913 4.576-10.913-1.435-17.663"/>
        <path fill="#8D3B26" d="M177.417 15.628s-8.818-6.343-21.512 3.328c-2.73 2.082 1.029 12.501.313 13.319-.764.878-8.518-8.215-8.298-7.051 2.255 11.849-2.044 17.811-3.078 17.776-3.132-.106-15.209-17.882-9.18-30.523C141.691-.165 158.694-.687 161.914.352c3.22 1.033 22.698.747 15.503 15.276"/>
        <path fill="#FFBD95" d="M152.595 27.66c.646 3.835.672 8.904-1.069 9.302-1.736.398-3.67-2.392-4.315-6.227-.646-3.835.243-7.263 1.984-7.66 1.74-.398 2.759.75 3.4 4.585"/>
        <path fill="#191919" d="M127 380.877h15v-2.755h-15z"/>
        <path fill="#0F0D0D" d="M127.455 358.177c-1.935 2.748-3.244 8.066-3.434 10.515-.23 2.956 1.504 9.182 3.419 9.182 5.584 0 12.263.228 18.022 1.014 5.763.786 7.913 4.147 22.65 4.112 4.3-.01 12.113-.284 11.883-2.059-.23-1.77-14.132-4.989-18.621-9.182-11.343-10.606-18.902-13.167-18.902-13.167s-14.622-.983-15.017-.415"/>
        <path fill="#191919" d="M115.896 172.65s-.947 5.935-1.83 14.438c-.882 8.503 7.248 35.728 10.121 57.137 2.879 21.41 4.659 25.738 3.938 30.795-.716 5.053-7.002 25.54-6.198 39.165.804 13.625 3.506 49.259 3.506 49.259s3.982 1.824 10.925 2.503c6.943.675 11.759-5.37 11.759-5.37s5.59-79.612 6.467-88.011c.574-5.434 4.968-42.942 6.316-73.514.432-9.837-.676-32.585-.672-36.65.005-2.832-44.332 10.248-44.332 10.248M121.814 386.382L107 385.457l.18-2.84 14.82.925-.186 2.84"/>
        <path fill="#191919" d="M110.186 363.1c-2.104 2.666-3.754 7.983-4.108 10.46-.42 2.98.902 9.406 2.807 9.526 5.56.35 12.19.999 17.875 2.157 5.684 1.158 7.608 4.703 22.272 5.587 4.283.26 12.081.47 11.967-1.343-.115-1.813-13.742-5.947-17.935-10.48-10.6-11.474-17.96-14.55-17.96-14.55s-14.484-1.907-14.918-1.358"/>
        <path fill="#303030" d="M106.72 158s-4.86 12.774-4.717 23.367c.12 8.582 2.582 24.343 5.491 45.838 2.91 21.495 3.193 41.477 2.463 46.55-.725 5.078-7.497 26.598-6.683 40.278.814 13.68 4.508 47.436 4.508 47.436s4.275 3.753 11.305 4.43c7.03.682 11.181-2.32 11.181-2.32s8.197-80.067 11.37-87.947c5.059-12.575 5.819-52.18 9.324-79.191 1.415-10.892 8.038-34.802 8.038-34.802L106.72 158"/>
        <path fill="#B8D1FF" d="M160 69.27l-.223 5.73L149 65l11 4.27"/>
        <path fill="#B8D1FF" d="M159 75l2.942-6L164 71.785 159 75"/>
        <path fill="#303030" d="M156 71.418l8-.418-.967 7.62-4.298.38L156 71.418"/>
        <path fill="#E0F2FF" d="M136 57.778L141.477 53 159 70.33 154.142 77 136 57.778M162 68.076L165.164 75 167 69.002 164.209 64 162 68.076"/>
        <path fill="#3B1B1D" d="M105.514 158s15.194 1.065 30.255 1.673c15.06.608 24.151 1.028 24.151 1.028l.08 6.235s-15.454.363-31.356-.64c-15.697-.992-24.644-2.441-24.644-2.441l1.514-5.855"/>
        <path fill="#722C1D" d="M155.585 167h2.825a1.6 1.6 0 0 0 1.59-1.606v-2.788a1.6 1.6 0 0 0-1.59-1.606h-2.825a1.6 1.6 0 0 0-1.585 1.606v2.788a1.6 1.6 0 0 0 1.585 1.606"/>
        <path fill="#303030" d="M158.7 78.338s2.549 18.53 1.427 32.374C159.006 124.56 158 167.85 158 167.85l5.645 10.15 5.355-9.887s-2.49-42.564-2.88-57.769c-.395-15.2-3.35-32.344-3.35-32.344l-4.07.338"/>
        <path fill="#FFA47C" d="M243.69 153.209l.005-.011c.55-.82.336-1.952-.482-2.51l-6.38-4.374a1.815 1.815 0 0 0-2.518.477l-.005.011a1.816 1.816 0 0 0 .475 2.51l6.385 4.374a1.815 1.815 0 0 0 2.52-.477"/>
        <path fill="#FFA47C" d="M245.685 151.205l.005-.005a1.82 1.82 0 0 0-.476-2.513l-6.385-4.373a1.805 1.805 0 0 0-2.514.482l-.005.005c-.557.82-.343 1.951.476 2.514l6.38 4.367a1.806 1.806 0 0 0 2.52-.477"/>
        <path fill="#FFA47C" d="M246.685 149.204l.005-.006a1.823 1.823 0 0 0-.476-2.513l-6.38-4.369a1.811 1.811 0 0 0-2.52.477l-.004.006a1.82 1.82 0 0 0 .476 2.514l6.385 4.373a1.805 1.805 0 0 0 2.514-.482"/>
        <path fill="#FFA47C" d="M248.685 146.204l.005-.005a1.82 1.82 0 0 0-.476-2.513l-6.385-4.372a1.806 1.806 0 0 0-2.514.482l-.005.005c-.557.82-.343 1.95.476 2.513l6.385 4.372a1.805 1.805 0 0 0 2.514-.482"/>
        <path fill="#FFA47C" d="M225.146 134s12.036 2.108 14.158 3.15c2.123 1.036 8.696 7.349 8.696 7.349s-4.092.93-5.038 2.755c-.952 1.825-2.947 6.746-2.947 6.746s-7.652-2.565-10.629-4.77c-2.982-2.2-5.386-5.023-5.386-5.023L225.146 134"/>
        <path fill="#CEE0FF" d="M124.315 68.898c-7.014 5.5-4.632 13.047 1.127 19.716 5.76 6.663 42.128 34.505 44.936 34.386 2.814-.125 11.817-9.334 10.49-13.228-1.334-3.898-28.694-32.364-34.365-37.006-5.666-4.642-13.973-10.317-22.188-3.868"/>
        <path fill="#CEE0FF" d="M165.807 110.313c-4.807 8.47 13.047 17.89 22.311 21.494 9.265 3.61 37.335 13.193 37.335 13.193L230 133.553s-21.046-12.713-45.488-25.105c-5.893-2.986-13.812-6.754-18.705 1.865"/>
        <path fill="#E0F2FF" d="M225.644 146L217 141.882 223.356 129l8.644 4.118L225.644 146"/>
        <path fill="#79858E" d="M176 391h13V197h-13z"/>
        <path fill="#A0B4C0" d="M325 391h13V197h-13z"/>
        <path fill="#BDD2DE" d="M177 379h158V200H177z"/>
        <path fill="#586069" d="M175.602 225v-11h1.796v10.963l-1.796.037"/>
        <path fill="#A0B4C0" d="M177 225v-11l158 .115v7.648L177 225"/>
        <path fill="#BDD2DE" d="M159 214h194v-18H159z"/>
        <path fill="#353432" d="M78.755 338H4.245C2.455 338 1 339.443 1 341.22v50.56c0 1.782 1.454 3.22 3.245 3.22h74.51c1.79 0 3.245-1.438 3.245-3.22v-50.56c0-1.777-1.454-3.22-3.245-3.22M26.874 335.427c-.52-.16-1.389.205-2.025.53-.596.31-1.263.45-1.93.45 0 0-1.494.02-2.297.02-.839 0-.586 1.185-.586 1.185h7.722s.94-1.64-.884-2.185"/>
        <path fill="#242321" d="M80.622 339H3.378C1.514 339 0 340.503 0 342.354v8.175C0 359.628 7.431 367 16.592 367h50.816C76.568 367 84 359.628 84 350.53v-8.176c0-1.85-1.514-3.354-3.378-3.354"/>
        <path fill="#4C4B49" d="M80.622 338H3.378C1.514 338 0 339.498 0 341.349v8.18C0 358.628 7.431 366 16.592 366h50.816C76.568 366 84 358.628 84 349.53v-8.181c0-1.85-1.514-3.349-3.378-3.349"/>
        <path fill="#353432" d="M29.015 331.865h-3.03l-.635.635.635.635h3.03l.635-.635-.635-.635"/>
        <path fill="#FFB136" d="M26.5 332c-.485 0-.885.348-.885.779v4.442c0 .431.4.779.885.779.49 0 .885-.348.885-.779v-4.442c0-.431-.395-.779-.885-.779"/>
        <path fill="#F68B2E" d="M26.875 332l.065.3v4.515c0 .434-.395.792-.885.792l-.405-.099.815.492c.49 0 .885-.358.885-.791v-4.52l-.475-.689"/>
        <path fill="#353432" d="M63.378 336.427c-.803 0-2.298-.02-2.298-.02-.666 0-1.333-.14-1.929-.45-.636-.325-1.505-.69-2.025-.53-1.823.545-.884 2.185-.884 2.185h7.722s.253-1.185-.586-1.185M58.015 331.865h-3.03l-.635.635.635.635h3.03l.635-.635-.635-.635"/>
        <path fill="#FFB136" d="M56.5 332c-.49 0-.885.348-.885.779v4.442c0 .431.395.779.885.779.485 0 .885-.348.885-.779v-4.442c0-.431-.4-.779-.885-.779"/>
        <path fill="#F68B2E" d="M56.06 336.815V332.3l.065-.3-.475.689v4.52c0 .433.395.791.885.791l.815-.492-.405.099c-.49 0-.885-.358-.885-.792"/>
        <path fill="#353432" d="M54.778 328.764a115.689 115.689 0 0 0-26.556 0c-.774.09-1.314.705-1.209 1.365.095.611.195 1.222.29 1.833.105.655.79 1.113 1.524 1.028 8.415-.97 16.93-.97 25.346 0 .735.085 1.42-.373 1.524-1.028.095-.611.195-1.222.29-1.833.105-.66-.435-1.275-1.21-1.365"/>
        <path fill="#F68B2E" d="M36 369.84c0 1.743 1.482 3.16 3.314 3.16h3.377c1.827 0 3.309-1.417 3.309-3.16V359H36v10.84"/>
        <path fill="#FFB136" d="M39 369.095c0 1.053.79 1.905 1.756 1.905h2.488c.971 0 1.756-.852 1.756-1.905V361h-6v8.095"/>
        <path fill="#353432" d="M45.895 358H36.1c-.608 0-1.1.506-1.1 1.132v2.731c0 .626.492 1.137 1.1 1.137h9.795c.608 0 1.105-.511 1.105-1.137v-2.73c0-.627-.497-1.133-1.105-1.133"/>
    </g>
</svg>
